<svg fill="#020a1d" xmlns="http://www.w3.org/2000/svg" viewBox="0 0 500 500" preserveAspectRatio="xMidYMid slice">
	<path d="M243.245 -22L229.547 -14.1192L227.433 -22H221.474L188.918 -3.26849L186.005 -14.1192L148.289 7.58214L145.359 -3.26849L107.659 18.4328L104.73 7.58214L67.0135 29.2835L64.1007 18.4328L26.3843 40.1341L23.4715 29.2835L-14.245 50.9848L-17.1744 40.1341L-23 43.4856V62.1009L-12.8301 56.2608L-9.91734 67.1115L27.7991 45.4102L30.7118 56.2608L68.4283 34.5595L71.3577 45.4102L109.074 23.7088L111.987 34.5595L149.703 12.8582L152.616 23.7088L190.333 1.9909L193.245 12.8582L230.962 -8.85978L233.891 1.9909L271.608 -19.7104L274.52 -8.85978L297.373 -22H243.245Z" />
	<path d="M110.206 -22L98.5719 -15.3137L96.7743 -22H88.4187L57.9426 -4.46306L55.0299 -15.3137L17.3135 6.38757L14.4007 -4.46306L-22.9829 17.0558V23.1281L-21.901 22.5142L-18.9882 33.3649L18.7282 11.6636L21.641 22.5142L59.3575 0.812939L62.2869 11.6636L100.003 -10.0543L102.916 0.812939L140.633 -20.905L143.545 -10.0543L164.334 -22H110.206Z" />
	<path d="M509.341 -22L491.498 -11.73L488.735 -22H487.57L450.869 -0.879394L447.94 -11.73L410.223 9.97129L407.31 -0.879394L369.594 20.822L366.681 9.97129L328.965 31.6726L326.052 20.822L288.335 42.5233L285.406 31.6726L247.69 53.374L244.777 42.5233L207.06 64.2412L204.148 53.374L166.431 75.0919L163.518 64.2412L125.802 85.9426L122.872 75.0919L85.156 96.7932L82.2432 85.9426L44.5268 107.644L41.614 96.7932L3.89757 118.495L0.984782 107.644L-23 121.431V140.063L5.31231 123.771L8.2251 134.621L45.9416 112.92L48.871 123.771L86.5874 102.069L89.5002 112.92L127.217 91.2185L130.129 102.069L167.846 80.3513L170.759 91.2185L208.475 69.5006L211.405 80.3513L249.121 58.65L252.034 69.5006L289.75 47.7993L292.663 58.65L330.379 36.9486L333.292 47.7993L371.009 26.098L373.938 36.9486L411.655 15.2307L414.567 26.098L452.284 4.38005L455.197 15.2307L492.913 -6.47063L495.826 4.38005L515.466 -6.90197V-22H509.341Z" />
	<path d="M376.302 -22L360.523 -12.9246L358.076 -22H354.514L319.894 -2.07392L316.981 -12.9246L279.265 8.77671L276.335 -2.07392L238.619 19.6274L235.706 8.77671L197.989 30.4781L195.077 19.6274L157.36 41.3287L154.448 30.4781L116.731 52.1794L113.802 41.3287L76.0852 63.0301L73.1724 52.1794L35.4559 73.8973L32.5431 63.0301L-5.17328 84.748L-8.08606 73.8973L-22.9829 82.4584V101.09L-3.75853 90.0074L-0.845746 100.875L36.8707 79.1567L39.8002 90.0074L77.5166 68.306L80.4294 79.1567L118.146 57.4554L121.059 68.306L158.775 46.6047L161.688 57.4554L199.404 35.7541L202.334 46.6047L240.034 24.9034L242.963 35.7541L280.679 14.0527L283.592 24.9034L321.309 3.18547L324.221 14.0527L361.938 -7.6652L364.867 3.18547L402.567 -18.5158L405.496 -7.6652L430.43 -22H376.302Z" />
	<path d="M487.154 134.124L484.242 123.273L446.525 144.974L443.612 134.124L405.896 155.825L402.967 144.974L365.25 166.692L362.337 155.825L324.621 177.543L321.708 166.692L283.992 188.393L281.079 177.543L243.362 199.244L240.433 188.393L202.717 210.095L199.804 199.244L162.087 220.945L159.175 210.095L121.458 231.796L118.545 220.945L80.8288 242.647L77.8994 231.796L40.183 253.514L37.2702 242.647L-0.446191 264.365L-3.35898 253.514L-22.9829 264.813V279.911H-16.8743L0.96855 269.624L3.73149 279.911H4.89663L41.6144 258.773L44.5272 269.624L82.2437 247.923L85.1565 258.773L122.873 237.072L125.786 247.923L163.502 226.221L166.431 237.072L204.148 215.371L207.061 226.221L244.777 204.52L247.69 215.371L285.406 193.669L288.319 204.52L326.036 182.802L328.965 193.669L366.681 171.952L369.594 182.802L407.311 161.101L410.224 171.952L447.94 150.25L450.853 161.101L488.569 139.4L491.499 150.25L515.467 136.446V117.831L487.154 134.124Z" />
	<path d="M464.667 212.484L461.754 201.633L424.038 223.335L421.125 212.484L383.409 234.185L380.479 223.335L342.763 245.036L339.85 234.185L302.134 255.903L299.221 245.036L261.504 266.754L258.592 255.903L220.875 277.604L217.946 266.754L195.093 279.911H249.221L262.919 272.013L265.033 279.911H270.992L303.548 261.163L306.461 272.013L344.194 250.312L347.107 261.163L384.823 239.461L387.736 250.312L425.453 228.611L428.366 239.461L466.082 217.76L468.995 228.611L506.728 206.909L509.641 217.76L515.466 214.408V195.777L505.296 201.633L502.384 190.783L464.667 212.484Z" />
	<path d="M496.226 167.87L493.313 157.019L455.596 178.737L452.684 167.87L414.967 189.588L412.054 178.737L374.338 200.439L371.408 189.588L333.692 211.289L330.779 200.439L293.063 222.14L290.15 211.289L252.434 232.991L249.521 222.14L211.788 243.841L208.875 232.991L171.158 254.709L168.246 243.841L130.529 265.559L127.616 254.709L89.8999 276.41L86.9705 265.559L62.0537 279.911H116.182L131.944 270.819L134.391 279.911H137.953L172.573 259.968L175.503 270.819L213.219 249.117L216.132 259.968L253.848 238.267L256.761 249.117L294.478 227.416L297.407 238.267L335.107 216.565L338.036 227.416L375.753 205.715L378.665 216.565L416.382 194.847L419.295 205.715L457.011 183.997L459.924 194.847L497.64 173.146L500.57 183.997L515.467 175.436V156.804L496.226 167.87Z" />
	<path d="M473.739 246.23L470.826 235.379L433.11 257.097L430.197 246.23L392.48 267.948L389.551 257.097L351.835 278.799L348.922 267.948L328.149 279.91H382.277L393.895 273.207L395.693 279.91H404.048L434.524 262.357L437.437 273.207L475.154 251.506L478.083 262.357L515.467 240.838V234.766L514.368 235.379L511.455 224.529L473.739 246.23Z" />
	<path d="M173.322 279.911H177.932L177.316 277.605L173.322 279.911Z" />
	<path d="M40.2661 279.91H47.2902L46.3414 276.41L40.2661 279.91Z" />
	<path d="M478.083 100.377L475.17 89.5263L437.454 111.228L434.541 100.377L396.825 122.078L393.895 111.228L356.179 132.929L353.266 122.078L315.55 143.78L312.637 132.929L274.92 154.63L272.008 143.78L234.274 165.498L231.362 154.63L193.645 176.348L190.733 165.498L153.016 187.199L150.103 176.348L112.387 198.05L109.457 187.199L71.7577 208.9L68.8282 198.05L31.1117 219.751L28.1989 208.9L-9.51746 230.602L-12.4303 219.751L-22.9829 225.823V244.455L-8.10272 235.878L-5.18994 246.728L32.5431 225.027L35.4559 235.878L73.1724 214.176L76.0852 225.027L113.802 203.326L116.714 214.176L154.431 192.475L157.344 203.326L195.077 181.608L197.989 192.475L235.706 170.757L238.619 181.608L276.335 159.906L279.248 170.757L316.964 149.056L319.894 159.906L357.594 138.205L360.523 149.056L398.239 127.354L401.152 138.205L438.869 116.504L441.781 127.354L479.498 105.636L482.411 116.504L515.467 97.4735V78.8582L478.083 100.377Z" />
	<path d="M306.361 279.911H308.591L308.292 278.799L306.361 279.911Z" />
	<path d="M459.94 32.8674L457.011 22.0167L419.311 43.718L416.382 32.8674L378.665 54.5687L375.752 43.718L338.036 65.4194L335.123 54.5687L297.407 76.2866L294.494 65.4194L256.761 87.1373L253.848 76.2866L216.132 97.9879L213.219 87.1373L175.502 108.839L172.59 97.9879L134.873 119.689L131.96 108.839L94.2273 130.54L91.3145 119.689L53.598 141.391L50.6852 130.54L12.9688 152.241L10.0561 141.391L-23 160.421V179.036L14.3836 157.517L17.2964 168.368L55.0128 146.667L57.9422 157.517L95.6587 135.816L98.5715 146.667L136.288 124.965L139.201 135.816L176.917 114.115L179.83 124.965L217.546 103.264L220.476 114.115L258.192 92.3967L261.105 103.264L298.821 81.546L301.734 92.3967L339.451 70.6954L342.363 81.546L380.08 59.8447L383.009 70.6954L420.726 48.994L423.638 59.8447L461.355 38.1434L464.268 48.994L501.984 27.2927L504.897 38.1434L515.466 32.0544V13.439L500.57 22.0167L497.657 11.166L459.94 32.8674Z" />
	<path d="M482.976 279.911H515.316L515.466 279.828V261.196L482.976 279.911Z" />
	<path d="M469.011 66.6139L466.099 55.7632L428.382 77.4645L425.453 66.6139L387.736 88.3318L384.824 77.4645L347.107 99.1825L344.194 88.3318L306.478 110.033L303.565 99.1825L265.849 120.884L262.919 110.033L225.203 131.734L222.29 120.884L184.574 142.585L181.661 131.734L143.944 153.452L141.032 142.585L103.315 164.303L100.386 153.452L62.6693 175.154L59.7565 164.303L22.04 186.004L19.1272 175.154L-18.5892 196.855L-21.502 186.004L-23 186.851V205.482L-17.1744 202.131L-14.2616 212.982L23.4549 191.28L26.3676 202.131L64.084 180.413L67.0135 191.28L104.73 169.562L107.643 180.413L145.359 158.712L148.272 169.562L185.988 147.861L188.918 158.712L226.634 137.01L229.547 147.861L267.263 126.16L270.176 137.01L307.893 115.309L310.806 126.16L348.522 104.458L351.451 115.309L389.168 93.5912L392.081 104.458L429.797 82.7406L432.71 93.5912L470.426 71.8899L473.339 82.7406L511.055 61.0392L513.985 71.8899L515.466 71.0437V52.4118L509.641 55.7632L506.728 44.9125L469.011 66.6139Z" />
	<path d="M461.188 279.911H482.793L479.897 269.143L461.188 279.911Z" />
	<path d="M468.193 225L469.125 228.484L475.201 225H468.193Z" />
	<path d="M337.534 225L338.15 227.29L342.144 225H337.534Z" />
	<path d="M266.245 225L252.547 232.881L250.433 225H244.474L211.918 243.732L209.005 232.881L171.289 254.582L168.359 243.732L130.659 265.433L127.73 254.582L90.0135 276.283L87.1007 265.433L49.3843 287.134L46.4715 276.283L8.75502 297.985L5.82558 287.134L0 290.486V309.101L10.1699 303.261L13.0827 314.111L50.7991 292.41L53.7118 303.261L91.4283 281.559L94.3577 292.41L132.074 270.709L134.987 281.559L172.703 259.858L175.616 270.709L213.333 248.991L216.245 259.858L253.962 238.14L256.891 248.991L294.608 227.29L297.52 238.14L320.373 225H266.245Z" />
	<path d="M206.875 225L207.174 226.095L209.105 225H206.875Z" />
	<path d="M133.206 225L121.572 231.686L119.774 225H111.419L80.9426 242.537L78.0299 231.686L40.3135 253.388L37.4007 242.537L0.0170898 264.056V270.128L1.09902 269.514L4.01181 280.365L41.7282 258.664L44.641 269.514L82.3575 247.813L85.2869 258.664L123.003 236.946L125.916 247.813L163.633 226.095L166.545 236.946L187.334 225H133.206Z" />
	<path d="M532.341 225L514.498 235.27L511.735 225H510.57L473.869 246.121L470.94 235.27L433.223 256.971L430.31 246.121L392.594 267.822L389.681 256.971L351.965 278.673L349.052 267.822L311.335 289.523L308.406 278.673L270.69 300.374L267.777 289.523L230.06 311.241L227.148 300.374L189.431 322.092L186.518 311.241L148.802 332.943L145.872 322.092L108.156 343.793L105.243 332.943L67.5268 354.644L64.614 343.793L26.8976 365.495L23.9848 354.644L0 368.431V387.063L28.3123 370.771L31.2251 381.621L68.9416 359.92L71.871 370.771L109.587 349.069L112.5 359.92L150.217 338.219L153.129 349.069L190.846 327.351L193.759 338.219L231.475 316.501L234.405 327.351L272.121 305.65L275.034 316.501L312.75 294.799L315.663 305.65L353.379 283.949L356.292 294.799L394.009 273.098L396.938 283.949L434.655 262.231L437.567 273.098L475.284 251.38L478.197 262.231L515.913 240.529L518.826 251.38L538.466 240.098V225H532.341Z" />
	<path d="M399.302 225L383.523 234.075L381.076 225H377.514L342.894 244.926L339.981 234.075L302.265 255.777L299.335 244.926L261.619 266.627L258.706 255.777L220.989 277.478L218.077 266.627L180.36 288.329L177.448 277.478L139.731 299.179L136.802 288.329L99.0852 310.03L96.1724 299.179L58.4559 320.897L55.5431 310.03L17.8267 331.748L14.9139 320.897L0.0170898 329.458V348.09L19.2415 337.007L22.1543 347.875L59.8707 326.157L62.8002 337.007L100.517 315.306L103.429 326.157L141.146 304.455L144.059 315.306L181.775 293.605L184.688 304.455L222.404 282.754L225.334 293.605L263.034 271.903L265.963 282.754L303.679 261.053L306.592 271.903L344.309 250.185L347.221 261.053L384.938 239.335L387.867 250.185L425.567 228.484L428.496 239.335L453.43 225H399.302Z" />
	<path d="M510.154 381.124L507.242 370.273L469.525 391.974L466.612 381.124L428.896 402.825L425.967 391.974L388.25 413.692L385.337 402.825L347.621 424.543L344.708 413.692L306.992 435.393L304.079 424.543L266.362 446.244L263.433 435.393L225.717 457.095L222.804 446.244L185.087 467.945L182.175 457.095L144.458 478.796L141.545 467.945L103.829 489.647L100.899 478.796L63.183 500.514L60.2702 489.647L22.5538 511.365L19.641 500.514L0.0170898 511.813V526.911H6.12569L23.9686 516.624L26.7315 526.911H27.8966L64.6144 505.773L67.5272 516.624L105.244 494.923L108.156 505.773L145.873 484.072L148.786 494.923L186.502 473.221L189.431 484.072L227.148 462.371L230.061 473.221L267.777 451.52L270.69 462.371L308.406 440.669L311.319 451.52L349.036 429.802L351.965 440.669L389.681 418.952L392.594 429.802L430.311 408.101L433.224 418.952L470.94 397.25L473.853 408.101L511.569 386.4L514.499 397.25L538.467 383.446V364.831L510.154 381.124Z" />
	<path d="M0.150274 225L0.0170898 225.083V243.698L32.5072 225H0.150274Z" />
	<path d="M32.6729 225L35.569 235.751L54.2775 225H32.6729Z" />
	<path d="M487.667 459.484L484.754 448.633L447.038 470.335L444.125 459.484L406.409 481.185L403.479 470.335L365.763 492.036L362.85 481.185L325.134 502.903L322.221 492.036L284.504 513.754L281.592 502.903L243.875 524.604L240.946 513.754L218.093 526.911H272.221L285.919 519.013L288.033 526.911H293.992L326.548 508.163L329.461 519.013L367.194 497.312L370.107 508.163L407.823 486.461L410.736 497.312L448.453 475.611L451.366 486.461L489.082 464.76L491.995 475.611L529.728 453.909L532.641 464.76L538.466 461.408V442.777L528.296 448.633L525.384 437.783L487.667 459.484Z" />
	<path d="M519.226 414.87L516.313 404.019L478.596 425.737L475.684 414.87L437.967 436.588L435.054 425.737L397.338 447.439L394.408 436.588L356.692 458.289L353.779 447.439L316.063 469.14L313.15 458.289L275.434 479.991L272.521 469.14L234.788 490.841L231.875 479.991L194.158 501.709L191.246 490.841L153.529 512.559L150.616 501.709L112.9 523.41L109.97 512.559L85.0537 526.911H139.182L154.944 517.819L157.391 526.911H160.953L195.573 506.968L198.503 517.819L236.219 496.117L239.132 506.968L276.848 485.267L279.761 496.117L317.478 474.416L320.407 485.267L358.107 463.565L361.036 474.416L398.753 452.715L401.665 463.565L439.382 441.847L442.295 452.715L480.011 430.997L482.924 441.847L520.64 420.146L523.57 430.997L538.467 422.436V403.804L519.226 414.87Z" />
	<path d="M496.739 493.23L493.826 482.379L456.11 504.097L453.197 493.23L415.48 514.948L412.551 504.097L374.835 525.799L371.922 514.948L351.149 526.91H405.277L416.895 520.207L418.693 526.91H427.048L457.524 509.357L460.437 520.207L498.154 498.506L501.083 509.357L538.467 487.838V481.766L537.368 482.379L534.455 471.529L496.739 493.23Z" />
	<path d="M501.083 347.377L498.17 336.526L460.454 358.228L457.541 347.377L419.825 369.078L416.895 358.228L379.179 379.929L376.266 369.078L338.55 390.78L335.637 379.929L297.92 401.63L295.008 390.78L257.274 412.498L254.362 401.63L216.645 423.348L213.733 412.498L176.016 434.199L173.103 423.348L135.387 445.05L132.457 434.199L94.7577 455.9L91.8282 445.05L54.1117 466.751L51.1989 455.9L13.4825 477.602L10.5697 466.751L0.0170898 472.823V491.455L14.8973 482.878L17.8101 493.728L55.5431 472.027L58.4559 482.878L96.1724 461.176L99.0852 472.027L136.802 450.326L139.714 461.176L177.431 439.475L180.344 450.326L218.077 428.608L220.989 439.475L258.706 417.757L261.619 428.608L299.335 406.906L302.248 417.757L339.964 396.056L342.894 406.906L380.594 385.205L383.523 396.056L421.239 374.354L424.152 385.205L461.869 363.504L464.781 374.354L502.498 352.636L505.411 363.504L538.467 344.474V325.858L501.083 347.377Z" />
	<path d="M482.94 279.867L480.011 269.017L442.311 290.718L439.382 279.867L401.665 301.569L398.752 290.718L361.036 312.419L358.123 301.569L320.407 323.287L317.494 312.419L279.761 334.137L276.848 323.287L239.132 344.988L236.219 334.137L198.502 355.839L195.59 344.988L157.873 366.689L154.96 355.839L117.227 377.54L114.315 366.689L76.598 388.391L73.6852 377.54L35.9688 399.241L33.0561 388.391L0 407.421V426.036L37.3836 404.517L40.2964 415.368L78.0128 393.667L80.9422 404.517L118.659 382.816L121.571 393.667L159.288 371.965L162.201 382.816L199.917 361.115L202.83 371.965L240.546 350.264L243.476 361.115L281.192 339.397L284.105 350.264L321.821 328.546L324.734 339.397L362.451 317.695L365.363 328.546L403.08 306.845L406.009 317.695L443.726 295.994L446.638 306.845L484.355 285.143L487.268 295.994L524.984 274.293L527.897 285.143L538.466 279.054V260.439L523.57 269.017L520.657 258.166L482.94 279.867Z" />
	<path d="M492.011 313.614L489.099 302.763L451.382 324.465L448.453 313.614L410.736 335.332L407.824 324.465L370.107 346.183L367.194 335.332L329.478 357.033L326.565 346.183L288.849 367.884L285.919 357.033L248.203 378.735L245.29 367.884L207.574 389.585L204.661 378.735L166.944 400.452L164.032 389.585L126.315 411.303L123.386 400.452L85.6693 422.154L82.7565 411.303L45.04 433.004L42.1272 422.154L4.41083 443.855L1.49805 433.004L0 433.851V452.483L5.82558 449.131L8.73836 459.982L46.4549 438.28L49.3676 449.131L87.084 427.413L90.0135 438.28L127.73 416.562L130.643 427.413L168.359 405.712L171.272 416.562L208.988 394.861L211.918 405.712L249.634 384.011L252.547 394.861L290.263 373.16L293.176 384.011L330.893 362.309L333.806 373.16L371.522 351.459L374.451 362.309L412.168 340.591L415.081 351.459L452.797 329.741L455.71 340.591L493.426 318.89L496.339 329.741L534.055 308.039L536.985 318.89L538.466 318.044V299.412L532.641 302.763L529.728 291.913L492.011 313.614Z" />
</svg>
