<svg fill="#020a1d" xmlns="http://www.w3.org/2000/svg" viewBox="0 0 500 500" preserveAspectRatio="xMidYMid slice">
	<path fill-rule="evenodd" clip-rule="evenodd" d="M-197 62.8824C-161.275 -20.8555 -102.52 -92.902 -27.4698 -145H-75.6108C-124.528 -105.169 -165.672 -56.762 -197 -2.18213V62.8824ZM-85.2917 98.2055C-107.334 145.994 -118.772 197.931 -118.83 250.496C-118.876 285.829 -113.772 320.983 -103.677 354.863H-133.927C-150.012 296.199 -152.262 234.641 -140.504 174.973C-128.746 115.305 -103.296 59.1326 -66.1309 10.8209C-28.9661 -37.4908 18.9126 -76.6411 73.7852 -103.588C128.658 -130.535 189.047 -144.553 250.26 -144.553C311.473 -144.553 371.861 -130.535 426.734 -103.588C481.607 -76.6411 529.485 -37.4908 566.65 10.8209C603.815 59.1326 629.265 115.305 641.023 174.973C652.781 234.641 650.531 296.199 634.446 354.863H604.196C619.204 304.456 623.123 251.433 615.688 199.39C608.252 147.347 589.635 97.5001 561.101 53.2308C532.566 8.96155 494.781 -28.6952 450.307 -57.1855C405.834 -85.6758 355.711 -104.333 303.34 -111.893C250.969 -119.453 197.574 -115.738 146.775 -101C95.9762 -86.2616 48.9627 -60.8455 8.92213 -26.4748C-31.1184 7.89584 -63.2496 50.4172 -85.2917 98.2055ZM-60.6776 249.822C-60.5398 205.034 -50.596 160.809 -31.5327 120.214C-12.3737 79.4152 15.5331 43.2701 50.2337 14.31C84.9344 -14.6502 125.59 -35.7252 169.352 -47.4392C213.115 -59.1531 258.926 -61.2227 303.579 -53.503C348.231 -45.7834 390.645 -28.4611 427.849 -2.74931C465.053 22.9624 496.148 56.4419 518.957 95.3445C541.765 134.247 555.736 177.632 559.889 222.461C560.735 231.588 561.17 240.73 561.197 249.861C561.059 294.649 551.115 338.875 532.052 379.471C512.893 420.269 484.986 456.414 450.285 485.374C415.585 514.334 374.929 535.41 331.167 547.123C287.404 558.837 241.593 560.907 196.94 553.187C152.288 545.468 109.874 528.145 72.6703 502.434C35.4662 476.722 4.37111 443.242 -18.4375 404.34C-41.246 365.437 -55.2164 322.052 -59.3703 277.223C-60.216 268.096 -60.6507 258.953 -60.6776 249.822ZM-72.7345 144.821H-73.2604C-84.3695 178.842 -89.9343 214.291 -89.8502 249.838C-89.9351 285.388 -84.3703 320.839 -73.2604 354.863H-72.7345C-61.7387 387.975 -45.6129 419.302 -24.843 447.681C6.70778 490.79 48.0797 525.873 95.8924 550.063C143.705 574.253 196.602 586.863 250.26 586.863C303.917 586.863 356.814 574.253 404.627 550.063C452.439 525.873 493.811 490.79 525.362 447.681C546.132 419.302 562.258 387.975 573.254 354.863H573.78C584.889 320.842 590.454 285.392 590.369 249.845C590.454 214.296 584.889 178.845 573.78 144.821H573.254C562.258 111.71 546.132 80.3824 525.362 52.0033C493.811 8.89397 452.44 -26.189 404.627 -50.3788C356.814 -74.5685 303.917 -87.1786 250.26 -87.1786C196.602 -87.1786 143.705 -74.5685 95.8924 -50.3788C48.0797 -26.189 6.70779 8.89397 -24.843 52.0033C-45.6129 80.3824 -61.7387 111.71 -72.7345 144.821ZM-2.50133 250.495C-2.4716 213.009 6.00925 176.005 22.3187 142.2C38.6281 108.395 62.3521 78.6461 91.7493 55.1379C121.146 31.6297 155.471 14.9585 192.202 6.34825C228.934 -2.26202 267.14 -2.59291 304.017 5.37988C340.895 13.3527 375.506 29.4267 405.312 52.4222C435.117 75.4177 459.36 104.751 476.26 138.269C477.716 141.155 479.113 144.066 480.453 147H479.825C494.902 179.752 502.674 215.354 502.61 251.367C502.58 288.853 494.099 325.857 477.79 359.662C461.481 393.468 437.757 423.216 408.359 446.725C378.962 470.233 344.638 486.904 307.906 495.514C271.175 504.124 232.968 504.455 196.091 496.482C159.214 488.51 124.603 472.436 94.7971 449.44C64.9917 426.445 40.749 397.112 23.8486 363.594C22.3932 360.707 20.9955 357.796 19.6558 354.862H20.2833C5.20688 322.11 -2.56538 286.509 -2.50133 250.495ZM483.281 407.994C494.664 391.284 504.153 373.464 511.626 354.862H511.896C529.029 312.383 535.416 266.379 530.499 220.878C525.582 175.378 509.51 131.769 483.69 93.8685C457.871 55.9681 423.091 24.9323 382.396 3.47833C341.701 -17.9757 296.331 -29.1937 250.259 -29.1937C204.187 -29.1937 158.818 -17.9757 118.122 3.47833C77.4272 24.9323 42.6474 55.9681 16.8279 93.8685C5.4444 110.578 -4.04433 128.398 -11.5177 147H-11.7869C-28.9198 189.48 -35.3072 235.484 -30.3901 280.984C-25.4729 326.484 -9.40117 370.094 16.4183 407.994C42.2377 445.894 77.0175 476.93 117.713 498.384C158.408 519.838 203.777 531.056 249.85 531.056C295.922 531.056 341.291 519.838 381.986 498.384C422.682 476.93 457.461 445.894 483.281 407.994ZM405.494 -145H473.378C530.611 -113.093 580.254 -69.3171 618.932 -16.6496C657.609 36.018 684.412 96.3417 697.519 160.218V340.993C696.579 345.634 695.556 350.276 694.45 354.863H664.531C690.039 254.503 677.799 148.347 630.106 56.3141C582.413 -35.7183 502.547 -107.301 405.494 -145ZM697.519 62.7725V-2.18213C666.191 -56.762 625.047 -105.169 576.13 -145H527.989C603.023 -92.9317 661.777 -20.9252 697.519 62.7725ZM161.748 111.748C188.224 95.0893 218.918 86.2395 250.259 86.2277C281.601 86.2395 312.295 95.0893 338.771 111.748C353.616 121.088 366.793 132.668 377.868 146H378.4C398.27 170.074 410.85 199.257 414.677 230.155C418.504 261.052 413.421 292.393 400.018 320.534C399.788 321.018 399.555 321.5 399.32 321.982C399.223 322.18 399.126 322.378 399.028 322.576C393.405 334.053 386.428 344.896 378.202 354.863H378.066C366.991 368.195 353.814 379.774 338.969 389.115C312.493 405.773 281.799 414.623 250.458 414.635C219.116 414.623 188.422 405.773 161.946 389.115C147.101 379.774 133.924 368.195 122.849 354.863H122.317C102.447 330.788 89.8675 301.605 86.0405 270.708C82.2135 239.811 87.2965 208.469 100.699 180.329C101.027 179.641 101.359 178.955 101.696 178.273C107.318 166.801 114.292 155.963 122.515 146H122.651C133.726 132.668 146.903 121.088 161.748 111.748ZM381.891 286.192C377.299 302.928 369.543 318.535 359.134 332.227C350.662 343.313 340.472 353.103 328.87 361.196C305.904 377.217 278.522 385.814 250.458 385.814C222.393 385.814 195.011 377.217 172.045 361.196C149.079 345.175 131.646 322.509 122.122 296.288C112.599 270.066 111.447 241.566 118.827 214.671C123.418 197.936 131.173 182.33 141.581 168.64C150.053 157.551 160.244 147.761 171.847 139.667C194.813 123.646 222.195 115.049 250.259 115.049C278.324 115.049 305.706 123.646 328.672 139.667C351.638 155.688 369.071 178.354 378.595 204.575C388.119 230.796 389.27 259.297 381.891 286.192ZM-197 160.246V341.13C-196.06 345.772 -195.037 350.413 -193.931 355H-164.012C-189.52 254.64 -177.28 148.484 -129.587 56.4515C-81.8941 -35.5809 -2.02774 -107.163 95.0251 -144.863H27.1414C-30.0794 -112.967 -79.7155 -69.2085 -118.392 -16.5608C-157.068 36.0869 -183.879 96.389 -197 160.246ZM620.372 -145H661.849L661.876 -144.89C674.393 -132.018 686.283 -118.606 697.546 -104.654V-56.4529C675.117 -88.6509 649.241 -118.34 620.372 -145ZM-197 -104.654V-56.3431C-174.577 -88.5794 -148.701 -118.305 -119.825 -145H-161.302C-173.837 -132.183 -185.727 -118.771 -196.972 -104.764L-197 -104.654ZM86.659 146C99.1716 126.699 115.078 109.718 133.671 95.8963C157.865 77.9122 185.943 65.7723 215.681 60.4384C245.418 55.1046 275.998 56.7234 304.996 65.1668C333.995 73.6101 360.614 88.6458 382.746 109.082C404.878 129.519 421.914 154.794 432.503 182.906C443.092 211.018 446.944 241.193 443.754 271.04C440.563 300.887 430.418 329.586 414.121 354.862H414.272C401.759 374.164 385.853 391.145 367.259 404.966C343.066 422.95 314.987 435.09 285.25 440.424C255.512 445.758 224.933 444.139 195.934 435.696C166.936 427.252 140.316 412.217 118.184 391.78C96.0524 371.343 79.0168 346.068 68.4275 317.956C57.8382 289.844 53.9863 259.669 57.177 229.822C60.3676 199.975 70.5131 171.276 86.8096 146H86.659ZM447.558 146C445.777 142.688 443.909 139.416 441.955 136.188C422.071 103.337 393.968 76.1537 360.377 57.2823C326.786 38.411 288.851 28.4932 250.259 28.4932C211.668 28.4932 173.733 38.411 140.142 57.2823C106.551 76.1537 78.4478 103.337 58.5637 136.188C38.6795 169.04 27.6914 206.443 26.6671 244.761C25.6429 283.079 34.6177 321.009 52.7188 354.862H53.373C55.1539 358.174 57.0217 361.446 58.9754 364.674C78.8595 397.526 106.963 424.709 140.554 443.58C174.145 462.451 212.08 472.369 250.671 472.369C289.263 472.369 327.198 462.451 360.789 443.58C394.379 424.709 422.483 397.526 442.367 364.674C462.251 331.822 473.239 294.419 474.263 256.101C475.288 217.783 466.313 179.854 448.212 146H447.558ZM357.602 250.496C357.585 230.365 351.831 210.65 341.004 193.631C330.177 176.613 314.721 162.987 296.423 154.329C278.126 145.671 257.734 142.336 237.607 144.709C217.481 147.082 198.442 155.066 182.693 167.737C166.944 180.409 155.129 197.25 148.614 216.313C142.099 235.376 141.151 255.882 145.879 275.457C150.607 295.033 160.819 312.879 175.332 326.932C189.845 340.984 208.067 350.668 227.89 354.863H272.63C296.689 349.771 318.257 336.626 333.725 317.627C349.193 298.629 357.622 274.929 357.602 250.496ZM172.007 250.496C172.007 235.123 176.596 220.096 185.195 207.314C193.793 194.532 206.015 184.57 220.314 178.687C234.613 172.804 250.346 171.265 265.526 174.264C280.706 177.263 294.649 184.665 305.593 195.536C316.537 206.406 323.99 220.255 327.009 235.332C330.029 250.41 328.479 266.038 322.556 280.24C316.633 294.443 306.604 306.582 293.735 315.123C280.866 323.663 265.737 328.222 250.26 328.222C239.983 328.222 229.808 326.211 220.314 322.305C210.82 318.399 202.193 312.674 194.927 305.456C187.66 298.239 181.896 289.671 177.963 280.24C174.031 270.81 172.007 260.703 172.007 250.496ZM291.071 223.403C296.49 231.416 299.397 240.843 299.424 250.496C299.442 256.92 298.184 263.285 295.721 269.225C293.259 275.166 289.64 280.565 285.073 285.114C280.506 289.664 275.08 293.273 269.106 295.735C263.132 298.198 256.728 299.466 250.26 299.466C240.542 299.466 231.042 296.605 222.96 291.245C214.878 285.886 208.577 278.267 204.852 269.352C201.127 260.437 200.145 250.625 202.031 241.157C203.917 231.688 208.585 222.986 215.447 216.152C222.309 209.317 231.056 204.655 240.584 202.755C250.112 200.856 259.993 201.803 268.979 205.478C277.965 209.153 285.652 215.391 291.071 223.403ZM233.692 239.425C231.483 242.701 230.301 246.553 230.296 250.496C230.292 253.116 230.809 255.712 231.816 258.135C232.823 260.557 234.301 262.758 236.166 264.613C238.03 266.467 240.244 267.938 242.682 268.942C245.119 269.946 247.732 270.463 250.371 270.463C254.34 270.463 258.22 269.294 261.521 267.104C264.821 264.914 267.395 261.802 268.915 258.16C270.435 254.518 270.834 250.51 270.062 246.643C269.289 242.776 267.38 239.223 264.575 236.433C261.771 233.644 258.196 231.743 254.304 230.97C250.412 230.198 246.376 230.589 242.707 232.094C239.039 233.599 235.902 236.15 233.692 239.425Z"/>
</svg>
