<svg fill="#f04819" xmlns="http://www.w3.org/2000/svg" viewBox="0 0 500 500" preserveAspectRatio="xMidYMid slice">
	<path d="M407.559 499.852H423.86V483.648H407.559V499.852ZM0.0277975 499.852H16.329V483.731H0.0277975V499.852ZM293.45 499.852H309.751V483.731H293.45V499.852ZM505.366 499.852H521.667V483.731H505.366V499.852ZM570.571 483.731H537.969V499.852H586.873V483.731H570.571ZM766.214 483.731H749.913V499.852H782.515V483.731H766.214ZM864.021 499.852H880.323V483.731H864.021V499.852ZM16.329 467.499V483.621H32.6303V499.852H48.9315V467.499H16.329ZM342.354 483.621H358.655V467.499H342.354V483.621ZM733.611 483.621H749.913V467.499H733.611V483.621ZM260.848 451.378V467.499H244.546V483.621H260.848V467.499H277.149V451.378H260.848ZM439.772 467.499H456.074V451.378H439.772V467.499ZM521.667 467.499H537.969V451.378H521.667V467.499ZM0.0277975 451.378H16.329V435.256H0.0277975V451.378ZM212.277 435.256V467.499H179.341V483.621H163.04V467.499H179.341V451.378H163.04V467.499H146.739V499.852H195.615V483.731H211.916V499.852H228.217V435.256H212.277ZM244.463 451.378H260.764V435.256H244.463V451.378ZM472.681 435.256V499.852H488.982V483.731H505.283V467.609H488.982V435.256H472.681ZM65.1495 419.134H81.4507V403.013H65.1495V419.134ZM81.4507 467.499V451.378H97.752V483.621H81.4507V467.499ZM97.752 403.013V435.256H65.2327V451.378H48.9315V467.499H65.2327V499.852H130.438V483.731H114.136V467.609H146.739V451.487H163.04V435.366H146.739V419.244H130.438V435.366H114.136V403.013H97.752ZM863.938 403.013V435.256H847.637V451.378H831.558V467.499H815.257V483.621H864.16V467.499H880.461V483.621H896.763V435.256H880.461V403.013H863.938ZM391.174 386.891V403.013H358.655V419.134H342.354V403.013H326.136V451.378H309.751V435.256H277.149V451.378H293.45V467.499H277.149V483.621H293.45V467.499H326.136V451.378H342.437V435.256H375.04V467.499H391.341V483.621H358.655V499.852H391.258V483.731H407.559V467.609H391.258V451.487H407.559V467.609H423.86V435.256H391.258V419.134H407.559V386.891H391.174ZM456.213 386.891V419.134H439.995V435.256H472.597V386.891H456.213ZM635.721 386.891V403.013H570.516V419.134H586.817V435.256H537.969V451.378H554.27V467.499H586.873V483.621H603.202V499.852H668.406V483.731H635.804V467.609H652.105V451.487H635.804V467.609H603.202V451.487H586.873V435.366H603.202V419.244H619.503V451.487H635.804V419.134H652.105V386.891H635.721ZM700.926 386.891V403.013H684.624V386.891H668.323V435.256H684.624V419.134H701.037V435.256H684.736V451.378H668.434V467.499H684.736V483.621H701.037V499.852H717.338V435.256H733.639V451.378H749.94V467.499H798.844V451.378H766.242V419.134H717.338V386.891H700.926ZM570.405 386.891H586.706V370.77H570.516L570.405 386.891ZM766.047 370.77H749.746V403.013H766.047V386.891H782.349V435.256H798.65V419.134H814.951V386.891H798.65V370.77H766.047ZM276.982 354.648V403.013H260.681V386.891H244.38V419.134H228.079V435.256H244.38V419.134H293.283V403.013H309.585V370.77H293.283V354.648H276.982ZM733.611 370.77H749.913V354.648H733.611V370.77ZM537.969 338.526V370.77H521.667V386.891H489.065V419.134H505.366V451.378H521.667V435.256H537.969V419.134H521.667V403.013H537.969V386.891H554.27V370.77H570.516V354.648H554.215V338.526H537.969ZM749.913 354.648H766.214V338.526H749.913V354.648ZM16.329 338.526H32.6303V322.405H16.329V338.526ZM130.438 322.405V338.526H114.136V370.77H97.8352V354.648H81.5339V370.77H65.2327V386.891H130.438V403.013H146.739V370.77H130.438V338.526H146.739V322.405H130.438ZM798.816 322.405V338.526H782.515V354.648H815.118V338.526H831.558V322.405H798.816ZM880.323 322.405V354.648H847.72V338.526H831.558V386.891H847.859V370.77H864.16V386.891H896.763V322.405H880.323ZM228.245 322.405H244.546V306.283H228.245V322.405ZM749.913 322.405H766.214V306.283H749.913V322.405ZM782.515 306.283V322.405H766.214V338.526H782.515V322.405H798.816V306.283H782.515ZM179.341 354.648H195.615V370.77H179.314L179.341 354.648ZM195.615 290.162V306.283H179.314V322.405H163.012V338.526H179.314V354.648H163.012V403.013H179.314V386.891H195.615V403.013H211.916V370.77H260.82V338.526H293.422V322.405H244.546V338.526H228.245V354.648H211.944V290.162H195.615ZM537.941 290.162V306.283H521.64V322.405H554.242V290.162H537.941ZM798.789 306.283H815.09V290.162H798.789V306.283ZM863.994 290.162V306.283H847.693V322.405H863.994V306.283H896.596V290.162H863.994ZM0 274.04V306.283H16.3012V274.04H0ZM179.314 290.162H195.615V274.04H179.314V290.162ZM586.845 322.405V306.283H603.174V338.526H586.845V322.405ZM570.516 274.04V322.405H554.215V338.526H570.516V354.648H603.146V386.891H619.447V354.648H635.748V370.77H652.05V354.648H668.351V338.526H652.05V322.405H619.447V306.283H635.748V290.162H586.817V274.04H570.516ZM16.2734 257.918V274.04H32.5747V306.283H81.4785V290.162H48.9315V257.918H16.2734ZM114.081 257.918V274.04H97.7797V306.283H81.4785V322.405H48.9315V338.526H32.6303V354.648H16.329V338.526H0.0277975V403.013H16.329V419.134H32.6303V451.378H48.9315V435.256H65.2327V419.134H48.9315V403.013H32.6303V386.891H16.329V370.77H32.6303V354.648H81.5339V338.526H97.8352V322.405H130.438V306.283H163.04V274.04H146.739V290.162H130.438V257.918H114.081ZM162.985 274.04H179.286V257.918H162.985V274.04ZM684.652 257.918H701.037V241.687H684.736L684.652 257.918ZM65.2327 241.687V273.93H97.8352V257.808H81.5339V241.687H65.2327ZM179.341 257.808H195.615V241.687H179.314L179.341 257.808ZM652.105 241.687V322.295H668.406V306.173H684.708V322.295H668.406V338.416H684.708V322.295H717.699V354.538H733.611V290.162H717.31V306.283H701.037V274.04H717.338V257.918H701.037V274.04H668.434V241.687H652.105ZM570.516 225.675V257.918H586.817V241.687H603.146V225.565L570.516 225.675ZM668.351 241.797H684.652V225.675H668.351V241.797ZM700.953 225.675V241.687H733.556V257.808H749.857V273.93H766.158V241.687H749.857V225.565L700.953 225.675ZM81.4785 225.675V241.687H97.7797V257.808H114.081V225.675H81.4785ZM195.615 241.687H211.916V225.565H195.615V241.687ZM244.519 225.565V241.687H228.217V257.808H195.615V273.93H244.519V257.808H260.82V225.675L244.519 225.565ZM326.136 209.553V225.675H277.149V241.687V257.808H260.848V290.052H244.546V306.173H277.149V274.04H293.45V257.918H309.751V241.687H326.136V225.565H342.437V241.687H326.136V290.052H358.738V273.93H342.437V257.808H358.738V209.553H326.136ZM684.791 225.675H701.037V209.553H684.736L684.791 225.675ZM407.642 193.459V209.553H391.341V225.675H423.943V209.581V193.487L407.642 193.459ZM0.111021 193.459V257.946H16.4123V241.687H49.0149V225.565H32.7136V209.553H16.4123V193.432L0.111021 193.459ZM293.533 209.581H309.835V193.459H293.533V209.581ZM358.738 209.581H391.341V193.459H358.655L358.738 209.581ZM864.16 193.459V209.581H831.558V257.946H847.859V274.067H831.558V257.946H815.257V241.687H798.955V225.565H782.654V193.432H749.913V209.553H766.214V241.687H782.515V273.93H831.558V290.052H864.16V241.687H847.859V225.565H864.16V209.553H880.461V257.918H896.763V209.553H880.461V193.432L864.16 193.459ZM16.4678 177.338V193.459H32.7691V209.581H49.0703V177.31L16.4678 177.338ZM342.493 193.459H358.794V177.338H342.493V193.459ZM733.75 193.459H750.052V177.338H733.75V193.459ZM163.179 177.338H179.48V161.216H163.179V177.338ZM439.911 177.338H456.213V161.216H439.911V177.338ZM635.943 177.338H652.244V161.216H635.943V177.338ZM0.166616 161.216H16.4678V145.095H0.166616V161.216ZM212.277 145.067V177.31H179.341V193.432H163.04V177.31H146.739V257.918H163.04V225.675H195.615V193.432H211.916V209.553H228.217V145.067H212.277ZM244.463 161.189H260.764V145.067H244.463V161.189ZM277.066 145.067V161.189H260.764V177.31H244.463V193.432H260.764V177.31H277.066V161.189H293.367V177.31H277.066V193.432H293.367V177.31H326.136V161.189H309.751V145.067H277.066ZM374.873 306.283V290.162H391.174V274.04H407.475V290.162H440.078V322.405H423.777V338.526H391.258V322.405H423.86V306.283H374.956V322.405H358.655V306.283H374.873ZM537.885 145.067V161.189H521.584V177.31H537.885V161.189H554.187V177.31H586.789V193.432H537.969V225.675H521.667V241.687H505.366V257.808H489.065V241.687H505.366V225.565H521.667V193.432H505.366V209.553H489.065V193.432H505.366V177.31H489.065V145.067H472.764V209.553H456.463V225.675H423.86V257.918H456.463V225.675H472.764V290.162H489.065V306.283H456.463V274.04H423.86V257.918H407.559V241.687H374.956V290.052H358.655V306.173H309.751V322.295H326.136V338.416H342.437V354.538H358.738V386.781H375.04V354.648H391.341V370.77H407.642V354.648H423.943V338.526H440.245V354.648H423.943V370.77H489.148V354.648H521.751V338.526H489.065V354.648H456.463V322.405H505.366V306.283H521.667V290.162H537.969V274.04H554.27V257.918H521.667V241.687H554.27V209.553H586.873V193.432H603.202V225.675H619.503V241.687H603.202V257.808H586.873V273.93H619.503V241.687H635.804V209.553H652.105V225.675H668.406V193.432H635.804V177.31H603.202V161.189H586.873V145.067H537.885ZM81.5339 177.31V161.189H97.8352V193.432H81.5339V177.31ZM97.8352 112.824V145.067H65.2327V161.189H48.9315V177.31H65.2327V225.675H81.5339V209.553H130.438V193.432H114.136V177.31H146.739V161.189H163.04V145.067H146.739V129.083H130.438V145.204H114.136V112.824H97.8352ZM864.021 112.824V145.067H847.72V161.189H831.558V177.31H815.257V193.432H864.16V177.31H880.461V193.432H896.763V145.067H880.461V112.824H864.021ZM391.258 96.7022V112.824H358.655V129.083H342.354V112.961H326.136V161.326H342.437V145.204H375.04V177.448H391.341V161.326H407.642V177.448H391.341V193.569H407.642V177.448H423.943V145.067H391.258V129.083H407.559V96.7022H391.258ZM456.296 96.7022V129.083H439.995V145.204H472.597V96.7022H456.296ZM635.804 96.7022V112.824H570.516V129.083H586.817V145.204H603.146V129.083H619.447V161.326H635.748V129.083H652.05V96.7022H635.804ZM701.009 96.7022V112.824H684.708V96.7022H668.406V145.067H684.708V129.083H701.037V145.204H684.736V161.326H668.434V177.448H684.736V193.569H701.037V209.691H717.338V145.067H733.639V161.189H749.94V177.31H798.844V161.189H766.242V129.083H717.338V96.7022H701.009ZM570.488 96.7022H586.789V80.5807H570.516L570.488 96.7022ZM766.13 80.5807H749.829V112.824H766.13V96.7022H782.432V145.067H798.733V129.083H815.035V96.7022H798.733V80.5807H766.13ZM277.066 64.4589V112.824H260.764V96.7022H244.463V129.083H228.162V145.204H244.463V129.083H293.367V112.961H309.668V80.5807H293.367V64.4589H277.066ZM733.528 80.5807H749.829V64.4589H733.528V80.5807ZM114.136 48.3373V80.5807H97.8352V64.4589H81.5339V80.5807H65.2327V96.7022H130.438V112.824H146.739V80.5807H130.438V48.3373H114.136ZM505.366 48.3373H489.065V64.4589H521.667V48.3373H505.366ZM537.969 48.3373V80.5807H521.667V96.7022H489.065V129.083H505.366V161.326H521.667V145.204H537.969V129.083H521.667V112.961H537.969V96.8395H554.27V80.7179H570.516V64.5963H554.215V48.3373H537.969ZM749.913 64.4589H766.214V48.3373H749.913V64.4589ZM16.329 48.3373H32.6303V32.2157H16.329V48.3373ZM130.438 48.3373H146.739V32.2157H130.438V48.3373ZM668.406 48.3373H684.708V32.2157H668.406V48.3373ZM798.928 32.2157V48.3373H782.626V64.4589H815.229V48.3373H831.558V32.2157H798.928ZM880.434 32.2157V64.4589H847.831V48.3373H831.558V96.7022H847.859V80.5807H864.16V96.7022H896.763V32.2157H880.434ZM228.356 32.2157H244.657V16.0941H228.356V32.2157ZM750.024 32.2157H766.325V16.0941H750.024V32.2157ZM0.222211 16.0941H16.5234V0H0.222211V16.0941ZM32.6303 0V16.1216H81.5339V0H32.6303ZM97.8352 0V16.1216H81.5339V32.2432H48.9315V48.3648H32.6303V64.4864H16.329V48.3373H0.0277975V112.824H16.329V129.083H32.6303V161.326H48.9315V145.204H65.2327V129.083H81.5339V112.961H65.2327V129.083H48.9315V112.961H32.6303V96.8395H16.329V80.7179H32.6303V64.5963H81.5339V48.3373H97.8352V32.2157H130.438V16.0941H163.04V0H97.8352ZM179.341 64.4864H195.615V80.608H179.314L179.341 64.4864ZM195.615 0V16.1216H179.314V32.2432H163.012V48.3648H179.314V64.4864H163.012V112.851H179.314V96.7296H195.615V112.851H211.916V80.5807H260.82V48.3373H293.422V32.2157H244.546V48.3373H228.245V64.4589H211.944V0H195.615ZM244.519 0V16.1216H277.121V0H244.519ZM358.627 16.1216H374.929V0H358.627V16.1216ZM489.148 0V16.1216H456.463V0H440.161V32.2432H423.86V48.3648H391.258V32.2432H423.86V16.1216H374.956V32.2432H358.655V16.1216H309.751V32.2432H326.136V48.3648H342.437V64.4864H358.738V96.7296H375.04V64.4589H391.341V80.5807H407.642V64.4589H423.943V48.3373H440.245V64.4589H423.943V80.5807H489.148V64.4589H456.463V32.2157H505.366V16.0941H521.667V0H489.148ZM538.052 0V16.1216H521.751V32.2432H554.353V0H538.052ZM586.956 32.2432V16.1216H603.285V48.3373H586.956V32.2432ZM570.516 0V32.2432H554.215V48.3648H570.516V64.4864H603.146V96.7296H619.447V64.4589H635.748V80.5807H652.05V64.4589H668.351V48.3373H652.05V32.2157H619.447V16.0941H635.748V0H570.516ZM717.255 0V16.1216H701.037V0H652.133V32.2432H668.434V16.1216H684.736V32.2432H717.699V64.4864H733.611V0H717.255ZM798.761 0V16.1216H782.46V32.2432H766.158V48.3648H782.46V32.2432H798.761V16.1216H815.062V0H798.761ZM863.966 0V16.1216H847.665V32.2432H863.966V16.1216H896.568V0H863.966Z" />
</svg>
